<?xml version="1.0" encoding="UTF-8" standalone="no"?>
<!-- Created with Inkscape (http://www.inkscape.org/) -->

<svg
   xmlns:dc="http://purl.org/dc/elements/1.1/"
   xmlns:cc="http://creativecommons.org/ns#"
   xmlns:rdf="http://www.w3.org/1999/02/22-rdf-syntax-ns#"
   xmlns:svg="http://www.w3.org/2000/svg"
   xmlns="http://www.w3.org/2000/svg"
   xmlns:sodipodi="http://sodipodi.sourceforge.net/DTD/sodipodi-0.dtd"
   xmlns:inkscape="http://www.inkscape.org/namespaces/inkscape"
   width="297mm"
   height="210mm"
   viewBox="0 0 297 210"
   version="1.1"
   id="svg8"
   inkscape:version="0.92.4 (5da689c313, 2019-01-14)"
   sodipodi:docname="logojca.svg">
  <defs
     id="defs2" />
  <sodipodi:namedview
     id="base"
     pagecolor="#ffffff"
     bordercolor="#666666"
     borderopacity="1.0"
     inkscape:pageopacity="0.0"
     inkscape:pageshadow="2"
     inkscape:zoom="0.49497475"
     inkscape:cx="330.50193"
     inkscape:cy="277.49184"
     inkscape:document-units="mm"
     inkscape:current-layer="layer1"
     showgrid="false"
     inkscape:window-width="1366"
     inkscape:window-height="705"
     inkscape:window-x="-8"
     inkscape:window-y="-8"
     inkscape:window-maximized="1"
     units="mm" />
  <metadata
     id="metadata5">
    <rdf:RDF>
      <cc:Work
         rdf:about="">
        <dc:format>image/svg+xml</dc:format>
        <dc:type
           rdf:resource="http://purl.org/dc/dcmitype/StillImage" />
        <dc:title></dc:title>
      </cc:Work>
    </rdf:RDF>
  </metadata>
  <g
     inkscape:label="Layer 1"
     inkscape:groupmode="layer"
     id="layer1"
     transform="translate(0,-87)">
    <g
       id="g862"
       transform="matrix(2.8392317,0,0,4.2933778,-78.293308,-214.32049)">
      <path
         inkscape:connector-curvature="0"
         id="path33"
         d="m 31.843002,111.25347 c -1.814181,-0.51383 -2.562069,-1.79105 -2.077148,-3.54729 0.315602,-1.14302 1.294035,-1.89302 2.755464,-2.11218 1.40916,-0.21132 3.02567,0.0511 3.02633,0.49137 3.5e-4,0.22312 -0.47499,0.29189 -1.5845,0.22924 -1.466,-0.0828 -1.6448,-0.0297 -2.381732,0.70725 -1.027606,1.02761 -1.034948,1.96288 -0.02335,2.97447 0.601872,0.60188 1.012632,0.7734 1.852082,0.7734 1.0564,0 1.07869,-0.0191 1.07869,-0.92604 0,-0.85254 -0.063,-0.92604 -0.79375,-0.92604 -0.52917,0 -0.79375,-0.13229 -0.79375,-0.39688 0,-0.30467 0.33808,-0.39687 1.45521,-0.39687 h 1.4552 v 1.55154 1.55153 l -1.22755,0.16826 c -1.46032,0.20016 -1.55047,0.19549 -2.741196,-0.14176 z m 46.366216,-0.0853 c -1.08062,-0.46965 -1.38705,-1.2629 -1.38705,-3.59067 0,-1.7808 0.0195,-1.83486 0.66146,-1.83486 0.64496,0 0.66146,0.048 0.66146,1.9255 0,2.25138 0.42542,3.10158 1.55193,3.10158 1.4008,0 1.73943,-0.52943 1.84649,-2.88687 0.0858,-1.88973 0.15584,-2.14021 0.59834,-2.14021 0.45039,0 0.50115,0.21615 0.50115,2.13406 0,1.17373 -0.12046,2.35915 -0.26769,2.63426 -0.26588,0.4968 -1.76151,1.05769 -2.77501,1.04068 -0.29105,-0.005 -0.91703,-0.17745 -1.39108,-0.38347 z m 46.946612,0.0234 c -1.75851,-0.64795 -2.46613,-2.36198 -1.66697,-4.03783 1.22966,-2.57863 5.95092,-2.02953 6.6158,0.76944 0.21894,0.9217 -0.39042,2.41261 -1.20362,2.94483 -0.92595,0.60601 -2.58875,0.74967 -3.74521,0.32356 z m 3.12772,-1.26381 c 0.85959,-1.02156 0.75681,-2.14921 -0.27897,-3.06069 -0.9239,-0.81302 -1.85229,-0.75364 -2.78401,0.17809 -0.9868,0.98679 -1.03429,2.16476 -0.12397,3.07508 0.96716,0.96716 2.27779,0.88801 3.18695,-0.19248 z m -74.480752,-1.47318 -6e-4,-2.84427 2.05113,0.0878 c 2.13254,0.0913 2.97717,0.47923 2.97717,1.3674 0,0.52383 -0.80281,1.31922 -1.34375,1.33133 -0.29995,0.007 -0.29018,0.0738 0.0483,0.33162 0.23339,0.17777 0.6823,0.82882 0.99756,1.44679 l 0.57321,1.12359 h -0.73983 c -0.61206,0 -0.83003,-0.19419 -1.26215,-1.12448 -0.40399,-0.86975 -0.68714,-1.14344 -1.24992,-1.2082 -0.69975,-0.0805 -0.7276,-0.0375 -0.7276,1.12448 0,1.11236 -0.0525,1.2082 -0.66146,1.2082 h -0.66146 l -6.1e-4,-2.84427 z m 3.5457,-0.94154 c 0.37026,-0.60807 -0.3842,-1.24127 -1.47898,-1.24127 -0.67536,0 -0.74318,0.086 -0.74318,0.94201 0,0.92252 0.02,0.94031 0.96539,0.8599 0.58067,-0.0494 1.08151,-0.27282 1.25677,-0.56064 z m 43.550752,1.00768 v -2.77812 h 1.79321 c 2.1194,0 2.96929,0.44694 2.96929,1.5615 0,0.99705 -0.71715,1.57686 -2.20214,1.7804 -1.23077,0.16869 -1.23744,0.17512 -1.23744,1.19198 0,0.91414 -0.07,1.02237 -0.66146,1.02237 h -0.66146 z m 3.12209,-0.44979 c 0.76487,-0.76487 0.0448,-1.79916 -1.25261,-1.79916 -0.46126,0 -0.54656,0.16516 -0.54656,1.05833 0,0.98274 0.0529,1.05833 0.74083,1.05833 0.40746,0 0.88371,-0.14287 1.05834,-0.3175 z m -65.475352,-6.6708 c -3.68353,-0.70344 -6.756662,-2.041617 -8.091315,-3.523317 -0.824391,-0.91522 -0.639747,-1.11656 2.008895,-2.19049 1.43272,-0.58092 2.69202,-1.05622 2.79845,-1.05622 0.10643,0 0.14367,0.33952 0.0828,0.75448 -0.0908,0.61844 0.071,0.90432 0.89733,1.58543 1.51816,1.25139 3.27005,1.7523 6.05193,1.73041 3.00702,-0.0237 5.13487,-0.62337 6.43364,-1.81322 l 0.97469,-0.89294 0.0764,-8.91365 c 0.0712,-8.30426 0.044,-8.93819 -0.39688,-9.27262 -0.40533,-0.30745 0.0942,-0.36019 3.47991,-0.36739 3.20768,-0.007 3.87447,0.0539 3.53584,0.32231 -0.33378,0.26452 -0.45014,1.15179 -0.58123,4.43177 l -0.16389,4.10104 0.57524,-0.79375 c 0.31639,-0.43656 1.36847,-1.58496 2.33796,-2.552 1.36555,-1.36209 2.32425,-2.02745 4.2549,-2.95302 5.0201,-2.40667 6.88122,-2.60225 23.86874,-2.50828 l 13.703652,0.0758 -2.458862,1.7575 c -2.1942,1.56832 -2.50562,1.7162 -2.89335,1.37386 -0.36928,-0.32603 -2.19626,-0.36893 -12.17084,-0.28573 -11.22479,0.0936 -11.81241,0.12313 -13.48181,0.67701 -3.52912,1.17092 -6.72704,3.96978 -7.40601,6.48185 -0.94282,3.48822 1.15007,7.10395 5.16595,8.92484 3.82457,1.73414 2.63171,1.67243 34.214182,1.76996 l 28.64115,0.0884 v 1.44624 1.446237 l -27.18594,-0.004 c -15.264282,-0.002 -28.547612,-0.11702 -30.291082,-0.26149 -7.17721,-0.59473 -11.36073,-2.205617 -14.71689,-5.666847 -1.06926,-1.10273 -1.99134,-2.00497 -2.04906,-2.00497 -0.0577,0 -0.10495,0.37314 -0.10495,0.8292 0,3.43354 -2.74011,5.938357 -7.61887,6.964637 -2.80206,0.58944 -7.23824,0.72924 -9.49064,0.29911 z m 41.88509,-5.797897 c 16.51202,-12.18904 23.985642,-17.64088 24.182912,-17.64088 0.24434,0 4.17899,2.89222 17.93175,13.18101 l 7.49128,5.60441 h -3.73658 c -2.37956,0 -3.67823,-0.0944 -3.57591,-0.25998 0.0884,-0.14299 -1.83561,-1.73756 -4.27553,-3.54349 l -4.43621,-3.28351 -6.8875,-0.17683 c -4.32435,-0.11103 -7.207502,-0.0792 -7.747392,0.0854 -0.47294,0.14425 -0.8599,0.2206 -0.8599,0.16968 0,-0.0509 0.83162,-0.69746 1.848042,-1.43674 l 1.84803,-1.34415 h 4.0181 4.0181 l -2.62499,-1.97756 c -1.44374,-1.08766 -2.77944,-1.98063 -2.96821,-1.98438 -0.18878,-0.004 -3.64159,2.40957 -7.672922,5.36293 -4.03133,2.95335 -8.06767,5.90015 -8.96966,6.54844 -0.90198,0.64828 -1.59033,1.32753 -1.52966,1.50943 0.0849,0.2545 -0.77869,0.33073 -3.74694,0.33073 h -3.85727 z"
         style="fill:#999999;stroke-width:0.26458332" />
      <path
         transform="scale(0.26458333)"
         inkscape:connector-curvature="0"
         id="path50"
         d="m 299.79683,365.12269 c 0,-0.35265 51.57122,-38.45419 79.28571,-58.5774 8.44643,-6.13286 15.7976,-11.15403 16.33595,-11.15814 1.26426,-0.01 7.99291,4.88333 55.43323,40.31034 l 39.26918,29.32504 -3.55489,0.2284 c -1.9552,0.12561 -7.57275,0.12561 -12.48347,0 l -8.92857,-0.2284 -4.70655,-4.00153 c -5.12603,-4.35818 -22.84816,-17.82716 -27.43631,-20.85185 l -2.85714,-1.88355 -27.92129,-0.20296 -27.92129,-0.20297 5.73686,-4.28571 5.73686,-4.28572 15.71918,-0.35714 15.71918,-0.35714 -7.82046,-5.79803 c -4.30126,-3.18891 -9.17333,-6.67824 -10.82684,-7.75407 l -3.00636,-1.95604 -6.99364,4.82117 c -17.30136,11.92699 -55.82201,40.31165 -59.09343,43.54411 l -3.61448,3.57143 -13.03572,0.22274 c -7.16964,0.12251 -13.03571,0.0673 -13.03571,-0.12258 z"
         style="opacity:1;fill:#e20512;fill-opacity:1;stroke:none;stroke-width:1.42857146;stroke-miterlimit:4;stroke-dasharray:none;stroke-opacity:1" />
    </g>
  </g>
</svg>
